<svg width="148" height="119" viewBox="0 0 148 119" fill="none" xmlns="http://www.w3.org/2000/svg">
<g clip-path="url(#clip0_78_116)">
<path d="M129.126 14.875C132.794 14.875 136.311 16.1803 138.904 18.5037C141.498 20.8272 142.955 23.9785 142.955 27.2643V113.99C142.955 117.275 141.498 120.427 138.904 122.75C136.311 125.074 132.794 126.379 129.126 126.379H32.3283C28.6608 126.379 25.1435 125.074 22.5502 122.75C19.9569 120.427 18.5 117.275 18.5 113.99V27.2643C18.5 23.9785 19.9569 20.8272 22.5502 18.5037C25.1435 16.1803 28.6608 14.875 32.3283 14.875H129.126ZM125.669 110.892V78.0606C125.669 72.7046 123.294 67.568 119.067 63.7808C114.84 59.9936 109.107 57.866 103.129 57.866C97.2521 57.866 90.4071 61.0872 87.0883 65.919V59.0429H67.7978V110.892H87.0883V80.3526C87.0883 75.5827 91.3751 71.6801 96.6989 71.6801C99.2662 71.6801 101.728 72.5938 103.544 74.2202C105.359 75.8466 106.379 78.0525 106.379 80.3526V110.892H125.669ZM45.3269 49.3173C48.4076 49.3173 51.3621 48.2209 53.5405 46.2692C55.7188 44.3175 56.9426 41.6704 56.9426 38.9103C56.9426 33.1493 51.757 28.4413 45.3269 28.4413C42.2278 28.4413 39.2557 29.5443 37.0644 31.5076C34.8731 33.4709 33.642 36.1337 33.642 38.9103C33.642 44.6713 38.8967 49.3173 45.3269 49.3173ZM54.9375 110.892V59.0429H35.7854V110.892H54.9375Z" fill="#E8E9E8" fill-opacity="0.63"/>
</g>
<defs>
<clipPath id="clip0_78_116">
<rect width="148" height="119" fill="white"/>
</clipPath>
</defs>
</svg>
